<svg version="1" xmlns="http://www.w3.org/2000/svg" width="346.667" height="346.667" viewBox="0 0 260.000000 260.000000"><path d="M45.6 71.6c-1.4 1.4-1.6 8-1.6 58.3 0 53.7.1 56.9 1.8 58.4 1.6 1.4 4.4 1.7 18.4 1.7 14.7 0 16.7-.2 18.1-1.8 1.5-1.7 1.7-7.2 1.7-58.4 0-53.5-.1-56.6-1.8-58.1-2.7-2.4-34.2-2.5-36.6-.1zM74 95v5H54V90h20v5zM95.6 71.6c-1.4 1.4-1.6 8-1.6 58.3 0 53.7.1 56.9 1.8 58.4 1.6 1.4 4.4 1.7 18.4 1.7 14.7 0 16.7-.2 18.1-1.8 1.5-1.6 1.7-6.7 1.9-46l.3-44.1 22 43.6c18.6 37.1 22 43.2 22.9 41.4 1.3-3 5.2-3.8 7.6-1.6 2.3 2.1 2.6 4.5.8 6.4-.7.8 4.8-1.7 12.2-5.5 12.5-6.3 15.3-8.3 15.5-10.9.1-.6-10.2-21.6-22.9-46.9C176.2 92 169 78.5 167.4 77.8c-1.8-.8-4.6.2-16.5 6.2-7.9 4-15 7.7-15.6 8.2-1 .8-1.3-1.1-1.3-8.9 0-13.8.7-13.3-20.3-13.3-13.7 0-16.8.3-18.1 1.6zM124 95v5h-20V90h20v5z"/></svg>